<svg width="372px" height="282.00006px" viewBox="0 0 372 282.00006" version="1.1" xmlns:xlink="http://www.w3.org/1999/xlink" xmlns="http://www.w3.org/2000/svg">
  <path d="M152.821 149.075C150.541 156.98 141.671 184.112 140.086 183.476C139.279 181.451 130.766 153.451 130.435 150.858C129.442 146.71 128.605 143.535 127.351 139.422C124.92 130.399 122.552 122.316 120.361 113.278C119.311 109.245 119.133 108.515 117.529 102.452C116.586 99.5606 115.372 95.1665 114.669 93.3828C114.03 95.6513 113.723 96.6528 112.704 100.339C111.298 103.999 110.552 106.279 109.178 110.373C107.657 114.711 104.419 124.166 102.393 129.832C101.041 133.607 98.6948 140.126 97.2993 144.186C96.1865 147.137 90.0802 160.782 86.5975 169.246C94.815 169.246 91.28 169.25 93.3914 169.254C98.401 169.265 100.862 169.295 106.909 169.231C112.286 169.175 117.91 168.285 120.128 179.517C122.23 190.169 116.63 192.604 113.278 197.445C112.906 197.982 112.848 199.139 112.644 200.008C101.986 200.124 91.3275 200.24 79.5173 199.679C76.0278 205.431 73.6895 211.864 71.3507 218.293C70.6111 221.573 65.9367 235.297 65.265 238.011C64.2377 241.359 63.2102 244.707 61.2562 248.97C59.6665 252.478 58.6317 256.418 57.6861 258.106C54.6824 262.844 49.7419 271.991 49.0306 272.095C36.2258 283.792 17.3102 278.457 12.5384 270.791C7.76648 263.125 9.37211 266.721 4.97592 254.952C0.579739 243.183 -0.181976 234.097 0.0324078 232.078C0.0297131 229.42 0.0270185 226.762 0.591957 222.739C3.46259 211.022 7.31992 194.768 8.58735 189.91C10.5473 185.205 15.9309 168.807 16.28 167.711C17.7019 163.245 21.0822 152.938 22.0498 150.498C24.2736 145.157 28.0407 133.037 29.0504 130.443C30.5971 126.911 32.7386 118.728 33.8223 116.042C36.0885 110.736 39.7124 98.5941 40.7037 96.047C42.9204 90.6746 45.5027 82.6141 46.004 81.7063C48.5029 75.0323 52.5193 62.0389 52.8902 61.1181C55.5717 54.6614 59.1077 42.4171 59.8037 41.1398C61.653 36.2533 62.9355 33.163 64.2184 28.6699C64.2184 28.6699 69.0454 17.3903 70.4998 15.769C70.4998 15.769 76.6326 7.61625 77.2922 7.16851C84.8805 2.01725 80.8792 4.61179 86.6312 1.4395C89.9023 0.000581741 89.3408 0.0558605 90.8766 0.00118828C93.2506 -0.0222187 92.7534 0.293961 95.9383 1.4346C100.919 5.5282 106.416 9.74228 110.371 14.3351C113.544 19.1517 115.075 21.3172 117.529 27.2743C119.318 33.2389 120.872 37.3991 122.426 41.5593C123.538 45.4888 124.651 49.4186 125.637 55.0052C130.169 74.2679 134.963 91.7767 139.419 109.528C141.242 116.791 146.039 129.821 146.039 129.821L152.821 149.075Z" id="Shape" fill="#505256" stroke="none" />
  <path d="M109.522 200.018C109.124 198.704 110.36 197.945 110.732 197.408C114.084 192.567 118.417 189.83 116.314 179.176C114.096 167.94 109.805 170.519 104.427 170.576C98.3809 170.639 91.4194 170.576 83.2024 170.576C86.6849 162.11 89.7944 153.808 92.7012 149.075C92.6762 153.762 88.0159 158.651 87.4474 161.975C98.4066 168.314 119.61 150.413 121.443 186.343C121.203 193.285 119.955 194.57 117.162 198.478C114.433 200.044 114.417 199.797 112.069 200.018L109.522 200.018Z" id="Shape" fill="#505256" stroke="none" />
  <path d="M141.645 134.468C139.626 126.831 138.533 119.044 136.709 111.78C132.253 94.0254 127.46 76.5123 123.072 58.1525C129.784 78.6663 136.203 99.9495 142.725 121.142C143.108 122.387 151.439 148.24 152.821 149.075C152.036 152.666 141.645 134.468 141.645 134.468Z" id="Shape" fill="#505256" stroke="none" />
  <path d="M233.476 200.018C233.079 198.704 234.314 197.945 234.686 197.408C238.038 192.567 242.371 189.83 240.268 179.176C238.05 167.94 233.76 170.519 228.382 170.576C222.335 170.639 215.374 170.576 207.157 170.576C210.639 162.11 213.749 153.808 216.656 149.075C216.631 153.762 211.97 158.651 211.402 161.975C222.361 168.314 243.565 150.413 245.397 186.343C245.157 193.285 243.909 194.57 241.117 198.478C238.387 200.044 238.372 199.797 236.023 200.018L233.476 200.018Z" id="Shape" fill="#72757E" stroke="none" />
  <path d="M264.784 133.651C262.765 126.015 261.671 118.228 259.848 110.964C255.392 93.2092 250.598 75.6961 246.211 57.3363C252.923 77.8501 259.342 99.1333 265.864 120.326C266.247 121.571 274.578 147.424 275.959 148.258C275.175 151.85 264.784 133.651 264.784 133.651Z" id="Shape" fill="#72757E" stroke="none" />
  <path d="M302.113 68.9122C298.946 62.7985 310.571 47.9587 310.571 47.9587C310.571 47.9587 324.155 16.9904 330.262 4.30024C337.411 -7.15987 362.281 -6.75933 367.97 15.9994C370.893 27.8515 370.291 26.9623 371.732 38.014C372.043 41.7411 372.57 49.4225 370.034 63.0269C365.842 78.2176 355.959 104.932 351.487 117.466C350.178 117.738 329.488 118.112 329.281 117.466C329.386 116.88 307.635 101.742 302.113 68.9122Z" id="Shape" fill="#A0A9B2" stroke="none" />
  <path d="M275.077 149.075C272.798 156.98 263.927 184.112 262.342 183.476C261.535 181.451 253.023 153.451 252.692 150.858C251.699 146.71 250.861 143.535 249.608 139.422C247.176 130.399 244.808 122.316 242.618 113.278C241.568 109.245 241.39 108.515 239.785 102.452C238.842 99.5606 237.628 95.1665 236.926 93.3828C236.286 95.6513 235.979 96.6528 234.96 100.339C233.555 103.999 232.809 106.279 231.435 110.373C229.913 114.711 226.675 124.166 224.65 129.832C223.297 133.607 220.951 140.126 219.556 144.186C218.443 147.137 212.337 160.782 208.854 169.246C217.072 169.246 213.536 169.25 215.648 169.254C220.658 169.265 223.119 169.295 229.165 169.231C234.543 169.175 240.166 168.285 242.384 179.517C244.487 190.169 238.887 192.604 235.535 197.445C235.162 197.982 235.104 199.139 234.901 200.008C224.243 200.124 213.584 200.24 201.774 199.679C198.284 205.431 195.946 211.864 193.607 218.293C192.868 221.573 188.193 235.297 187.522 238.011C186.494 241.359 185.467 244.707 183.513 248.97C181.923 252.478 180.888 256.418 179.943 258.106C176.939 262.844 171.998 271.991 171.287 272.095C158.482 283.792 139.567 278.457 134.795 270.791C130.023 263.125 131.629 266.721 127.232 254.952C122.836 243.183 122.075 234.097 122.289 232.078C122.286 229.42 122.284 226.762 122.848 222.739C125.719 211.022 129.576 194.768 130.844 189.91C132.804 185.205 138.187 168.807 138.536 167.711C139.958 163.245 143.339 152.938 144.306 150.498C146.53 145.157 150.297 133.037 151.307 130.443C152.854 126.911 154.995 118.728 156.079 116.042C158.345 110.736 161.969 98.5941 162.96 96.047C165.177 90.6746 167.759 82.6141 168.26 81.7063C170.759 75.0323 174.776 62.0389 175.147 61.1181C177.828 54.6614 181.364 42.4171 182.06 41.1398C183.909 36.2533 185.192 33.163 186.475 28.6699C186.475 28.6699 191.302 17.3903 192.756 15.769C192.756 15.769 198.889 7.61625 199.549 7.16851C207.137 2.01725 203.136 4.61179 208.888 1.4395C212.159 0.000581741 211.597 0.0558605 213.133 0.00118828C215.507 -0.0222187 215.01 0.293961 218.195 1.4346C223.176 5.5282 228.673 9.74228 232.627 14.3351C235.8 19.1517 237.331 21.3172 239.785 27.2743C241.574 33.2389 243.128 37.3991 244.682 41.5593C245.795 45.4888 246.907 49.4186 247.894 55.0052C252.426 74.2679 257.219 91.7767 261.675 109.528C263.498 116.791 268.295 129.821 268.295 129.821L275.077 149.075Z" id="Shape" fill="#72757E" stroke="none" />
  <path d="M268.963 150.353C271.183 143.799 276.83 127.323 282.279 111.745C285.239 103.651 286.229 100.958 289.532 91.9732C293.132 80.9977 294.078 78.4551 296.454 71.5292C302.945 53.8249 302.861 54.179 309.184 38.3879C321.694 14.3143 321.428 16.2498 331.263 2.86683C335.749 8.80783 331.128 6.77238 335.322 12.7223C336.621 13.9286 337.562 14.5063 338.527 14.9971C338.551 14.9103 338.457 15.0111 338.517 15.8557C339.145 18.0302 339.714 19.3601 340.498 21.434C341.61 23.7273 342.507 25.2765 343.539 27.732C344.776 30.9754 345.878 33.3126 346.996 35.5634C347.011 35.4769 346.945 35.6226 347.023 36.4621C347.581 38.7464 348.061 40.1912 348.593 42.7012C349.255 47.8861 349.868 52.0058 350.502 57.3517C350.682 70.9139 350.545 83.2961 351.182 95.5574C351.369 99.1505 353.757 102.4 355.187 106.86C342.079 147.579 328.814 187.142 315.807 226.957C309.83 245.254 308.619 250.83 291.82 271.665C286.629 275.376 286.011 275.466 279.679 278.006C272.084 276.997 270.061 274.258 264.349 267.413C264.349 267.413 260.672 262.588 257.505 255.068C253.19 240.702 255.101 247.788 252.306 235.337C251.212 227.743 251.198 224.749 251.416 216.255C254.08 201.915 254.727 200.163 259.132 182.583C261.936 173.485 263.545 167.776 268.963 150.353M309.753 61.3377C308.838 61.6651 307.145 61.8716 307.121 62.3376C306.591 72.5683 314.236 90.9485 322.052 93.0921C318.25 82.9059 314.449 72.7197 309.753 61.3377L309.753 61.3377Z" id="Shape" fill="#A0A9B2" fill-rule="evenodd" stroke="none" />
</svg>