<svg width="16px" height="17px" viewBox="0 0 16 17">
  <path d="M11.5 9C11.7761 9 12 9.13776 12 9.30769L12 12.6923C12 12.8622 11.7761 13 11.5 13C11.2239 13 11 12.8622 11 12.6923L11 9.30769C11 9.13776 11.2239 9 11.5 9L11.5 9ZM11.5 15.5C11.9142 15.5 12.25 15.1642 12.25 14.75C12.25 14.3358 11.9142 14 11.5 14C11.0858 14 10.75 14.3358 10.75 14.75C10.75 15.1642 11.0858 15.5 11.5 15.5L11.5 15.5ZM7 0C4.79086 0 3 1.79086 3 4C3 6.20914 4.79086 8 7 8C9.2091 8 11 6.20914 11 4C11 1.79086 9.2091 0 7 0L7 0ZM4 4C4 2.34315 5.34315 1 7 1C8.6569 1 10 2.34315 10 4C10 5.65685 8.6569 7 7 7C5.34315 7 4 5.65685 4 4L4 4ZM2.00873 9C0.90315 9 0 9.8869 0 11C0 12.6912 0.83281 13.9663 2.13499 14.7966C3.21303 15.484 4.60667 15.8663 6.12572 15.9705L6.42539 14.9864C4.9297 14.9145 3.62328 14.5596 2.67262 13.9534C1.62226 13.2837 1 12.3088 1 11C1 10.4467 1.44786 10 2.00873 10L6.59955 10C6.78244 9.6422 7.0034 9.3071 7.257 9L2.00873 9L2.00873 9ZM16 12.5C16 14.9853 13.9853 17 11.5 17C10.7085 17 9.9647 16.7956 9.3185 16.4368L7.5294 16.9812C7.2162 17.0765 6.92358 16.7838 7.0189 16.4707L7.5635 14.6821C7.2045 14.0358 7 13.2918 7 12.5C7 10.0147 9.0147 8 11.5 8C13.9853 8 16 10.0147 16 12.5L16 12.5Z" id="Shape" fill="#242424" fill-rule="evenodd" stroke="none" />
</svg>