<svg width="12" height="14" fill="none" xmlns="http://www.w3.org/2000/svg">
  <path fill-rule="evenodd" clip-rule="evenodd" d="M5.66667 7.12727c-.2-.06363-.4-.12727-.6-.12727-.9-.06364-1.63334.47727-1.63334 1.17727s.7 1.30455 1.6 1.36818C5.6 9.57727 6.66667 9.38636 6.66667 8.05V4.93182l1.66666.38182V4.2L5.66667 2.64091v4.48636ZM11 10.1818H9c-.56667 0-1 .4137-1 .9546v1.9091H2c-.56667 0-1-.4137-1-.9546V.954545h10V10.1818ZM0 0v12.0909C0 13.1409.9 14 2 14h6.66667L12 10.8182V0H0Z" fill="#fff"/>
</svg>
