<svg width="16" height="16" viewBox="0 0 16 16" fill="none" xmlns="http://www.w3.org/2000/svg">
<path fill-rule="evenodd" clip-rule="evenodd" d="M10.9024 7.4878C10.5253 7.4878 10.2195 7.79356 10.2195 8.17073C10.2195 8.5479 10.5253 8.85366 10.9024 8.85366C11.2796 8.85366 11.5854 8.5479 11.5854 8.17073C11.5854 7.79356 11.2796 7.4878 10.9024 7.4878ZM7.82927 7.4878C7.4521 7.4878 7.14634 7.79356 7.14634 8.17073C7.14634 8.5479 7.4521 8.85366 7.82927 8.85366C8.20644 8.85366 8.5122 8.5479 8.5122 8.17073C8.5122 7.79356 8.20644 7.4878 7.82927 7.4878ZM4.7561 7.4878C4.37893 7.4878 4.07317 7.79356 4.07317 8.17073C4.07317 8.5479 4.37893 8.85366 4.7561 8.85366C5.13327 8.85366 5.43902 8.5479 5.43902 8.17073C5.43902 7.79356 5.13327 7.4878 4.7561 7.4878ZM10.9024 10.561C10.5253 10.561 10.2195 10.8667 10.2195 11.2439C10.2195 11.6211 10.5253 11.9268 10.9024 11.9268C11.2796 11.9268 11.5854 11.6211 11.5854 11.2439C11.5854 10.8667 11.2796 10.561 10.9024 10.561ZM7.82927 10.561C7.4521 10.561 7.14634 10.8667 7.14634 11.2439C7.14634 11.6211 7.4521 11.9268 7.82927 11.9268C8.20644 11.9268 8.5122 11.6211 8.5122 11.2439C8.5122 10.8667 8.20644 10.561 7.82927 10.561ZM4.7561 10.561C4.37893 10.561 4.07317 10.8667 4.07317 11.2439C4.07317 11.6211 4.37893 11.9268 4.7561 11.9268C5.13327 11.9268 5.43902 11.6211 5.43902 11.2439C5.43902 10.8667 5.13327 10.561 4.7561 10.561ZM13.6341 5.43902V12.9512C13.6341 13.5317 13.1902 13.9756 12.6098 13.9756H3.04878C2.46829 13.9756 2.02439 13.5317 2.02439 12.9512V5.43902H13.6341ZM5.09756 1H4.07317V2.36585H1V12.9512C1 14.078 1.92195 15 3.04878 15H12.6098C13.7366 15 14.6585 14.078 14.6585 12.9512V2.36585H11.5854V1H10.561V2.36585H5.09756V1Z" fill="black"/>
</svg>
