<svg width="16" height="16" viewBox="0 0 16 16" fill="none" xmlns="http://www.w3.org/2000/svg">
<path fill-rule="evenodd" clip-rule="evenodd" d="M12.863 11.2743L8.71566 8.00031L12.863 4.72564C13.0797 4.55497 13.117 4.24031 12.9457 4.02364C12.7743 3.80631 12.4603 3.76964 12.2437 3.94031L7.10166 8.00031L12.2437 12.059C12.335 12.1316 12.445 12.167 12.553 12.167C12.701 12.167 12.847 12.1016 12.9463 11.9763C13.117 11.7596 13.0797 11.4456 12.863 11.2743ZM8.40232 11.2743L4.25499 8.00031L8.40232 4.72564C8.61832 4.55497 8.65566 4.24031 8.48499 4.02364C8.31299 3.80631 7.99899 3.76964 7.78232 3.94031L2.64099 8.00031L7.78232 12.059C7.87432 12.1316 7.98366 12.167 8.09232 12.167C8.23966 12.167 8.38632 12.1016 8.48499 11.9763C8.65566 11.7596 8.61899 11.4456 8.40232 11.2743Z" fill="black"/>
</svg>
