<svg width="16" height="16" viewBox="0 0 16 16" fill="none" xmlns="http://www.w3.org/2000/svg">
<path fill-rule="evenodd" clip-rule="evenodd" d="M8.21832 3.94101C8.00098 3.76967 7.68765 3.80701 7.51632 4.02367C7.34498 4.24034 7.38165 4.55501 7.59832 4.72634L11.7463 8.00034L7.59832 11.2743C7.38165 11.4457 7.34498 11.7603 7.51632 11.9763C7.61498 12.1017 7.76098 12.167 7.90898 12.167C8.01765 12.167 8.12698 12.1317 8.21898 12.059L13.3596 8.00034L8.21832 3.94101ZM3.75765 3.94101C3.54098 3.76967 3.22632 3.80701 3.05565 4.02367C2.88432 4.24034 2.92165 4.55501 3.13832 4.72634L7.28498 8.00034L3.13765 11.2743C2.92098 11.4457 2.88432 11.7603 3.05498 11.9763C3.15432 12.1017 3.29965 12.167 3.44765 12.167C3.55632 12.167 3.66565 12.1317 3.75765 12.059L8.89898 8.00034L3.75765 3.94101Z" fill="black"/>
</svg>
