<svg width="16.039154px" height="16.112602px" viewBox="0 0 16.039154 16.112602">
  <path d="M3.5 7C3.2239 7 3 7.2239 3 7.5C3 7.7761 3.2239 8 3.5 8L7.5 8C7.7761 8 8 7.7761 8 7.5C8 7.2239 7.7761 7 7.5 7L3.5 7L3.5 7ZM3.7 5C3.31346 5 3 5.2239 3 5.5C3 5.7761 3.31346 6 3.7 6L9.3 6C9.68654 6 10 5.7761 10 5.5C10 5.2239 9.68654 5 9.3 5L3.7 5L3.7 5ZM6.53828 0C2.94843 0 0.0382779 2.91015 0.0382779 6.5C0.0382779 7.651 0.337868 8.7334 0.863528 9.6719L0.0677879 11.7542C-0.225502 12.5216 0.480478 13.2957 1.2716 13.0741L3.75898 12.3774C4.60219 12.7768 5.5448 13 6.53828 13C10.1281 13 13.0383 10.0899 13.0383 6.5C13.0383 2.91015 10.1281 0 6.53828 0L6.53828 0ZM1.03828 6.5C1.03828 3.46243 3.50071 1 6.53828 1C9.5758 1 12.0383 3.46243 12.0383 6.5C12.0383 9.5376 9.5758 12 6.53828 12C5.63615 12 4.78612 11.7832 4.03606 11.3993L3.86185 11.3101L1.0019 12.1111L1.97101 9.5753L1.84272 9.3655C1.33247 8.5313 1.03828 7.55079 1.03828 6.5L1.03828 6.5ZM9.5009 16C7.53124 16 5.76622 15.1239 4.57422 13.7402C5.13727 13.8926 5.7266 13.981 6.33392 13.9973C7.22932 14.629 8.3218 15 9.5009 15C10.403 15 11.253 14.7832 12.0031 14.3993L12.1773 14.3101L15.0373 15.1111L14.0681 12.5752L14.1964 12.3655C14.7067 11.5313 15.0009 10.5508 15.0009 9.5C15.0009 8.3455 14.6452 7.27414 14.0374 6.38943C14.0286 5.78165 13.9475 5.19137 13.8024 4.6268C15.1506 5.81779 16.0009 7.5596 16.0009 9.5C16.0009 10.651 15.7013 11.7333 15.1756 12.6719L15.9714 14.7542C16.2646 15.5216 15.5587 16.2957 14.7675 16.0741L12.2802 15.3774C11.437 15.7768 10.4943 16 9.5009 16L9.5009 16Z" id="Shape" fill="#242424" fill-rule="evenodd" stroke="none" />
</svg>