<svg width="16" height="16" viewBox="0 0 16 16" fill="none" xmlns="http://www.w3.org/2000/svg">
<g clip-path="url(#clip0_2843_95847)">
<path fill-rule="evenodd" clip-rule="evenodd" d="M5.30002 5.29996C5.10002 5.49996 5.10002 5.79996 5.30002 5.99996L7.30002 7.99996L5.30002 9.99996C5.10002 10.2 5.10002 10.5 5.30002 10.7C5.50002 10.9 5.80002 10.9 6.00002 10.7L8.00002 8.69996L10 10.7C10.2 10.9 10.5 10.9 10.7 10.7C10.9 10.5 10.9 10.2 10.7 9.99996L8.70002 7.99996L10.7 5.99996C10.9 5.79996 10.9 5.49996 10.7 5.29996C10.5 5.09996 10.2 5.09996 10 5.29996L8.00002 7.29996L6.00002 5.29996C5.80002 5.09996 5.50002 5.09996 5.30002 5.29996ZM8.00002 1.66663C11.5 1.66663 14.3334 4.49996 14.3334 7.99996C14.3334 11.5 11.5 14.3333 8.00002 14.3333C4.50002 14.3333 1.66669 11.5 1.66669 7.99996C1.66669 4.49996 4.50002 1.66663 8.00002 1.66663ZM8.00002 0.666626C3.93335 0.666626 0.666687 3.93329 0.666687 7.99996C0.666687 12.0666 3.93335 15.3333 8.00002 15.3333C12.0667 15.3333 15.3334 12.0666 15.3334 7.99996C15.3334 3.93329 12.0667 0.666626 8.00002 0.666626Z" fill="black"/>
</g>
<defs>
<clipPath id="clip0_2843_95847">
<rect width="16" height="16" fill="white"/>
</clipPath>
</defs>
</svg>
