<svg width="16" height="16" viewBox="0 0 16 16" fill="none" xmlns="http://www.w3.org/2000/svg">
<path fill-rule="evenodd" clip-rule="evenodd" d="M8.53983 7.83317L11.5198 4.85317C11.7152 4.65783 11.7152 4.34183 11.5198 4.1465C11.3245 3.95117 11.0078 3.95117 10.8125 4.1465L7.8325 7.12583L4.85317 4.1465C4.65783 3.95117 4.34117 3.95117 4.1465 4.1465C3.95117 4.34183 3.95117 4.65783 4.1465 4.85317L7.12583 7.83317L4.1465 10.8125C3.95117 11.0078 3.95117 11.3245 4.1465 11.5198C4.24383 11.6178 4.37183 11.6665 4.49917 11.6665C4.62783 11.6665 4.75583 11.6178 4.85317 11.5205L7.8325 8.5405L10.8125 11.5198C10.9105 11.6178 11.0385 11.6665 11.1658 11.6665C11.2945 11.6665 11.4225 11.6178 11.5198 11.5205C11.7152 11.3252 11.7152 11.0085 11.5198 10.8132L8.53983 7.83317Z" fill="black"/>
</svg>
