<svg width="20" height="20" viewBox="0 0 20 20" fill="none" xmlns="http://www.w3.org/2000/svg">
  <path fill-rule="evenodd" clip-rule="evenodd" d="M6.79167 6.79167C6.54167 7.04167 6.54167 7.41667 6.79167 7.66667L9.29167 10.1667L6.79167 12.6667C6.54167 12.9167 6.54167 13.2917 6.79167 13.5417C7.04167 13.7917 7.41667 13.7917 7.66667 13.5417L10.1667 11.0417L12.6667 13.5417C12.9167 13.7917 13.2917 13.7917 13.5417 13.5417C13.7917 13.2917 13.7917 12.9167 13.5417 12.6667L11.0417 10.1667L13.5417 7.66667C13.7917 7.41667 13.7917 7.04167 13.5417 6.79167C13.2917 6.54167 12.9167 6.54167 12.6667 6.79167L10.1667 9.29167L7.66667 6.79167C7.41667 6.54167 7.04167 6.54167 6.79167 6.79167ZM10.1667 2.25C14.5417 2.25 18.0833 5.79167 18.0833 10.1667C18.0833 14.5417 14.5417 18.0833 10.1667 18.0833C5.79167 18.0833 2.25 14.5417 2.25 10.1667C2.25 5.79167 5.79167 2.25 10.1667 2.25ZM10.1667 1C5.08333 1 1 5.08333 1 10.1667C1 15.25 5.08333 19.3333 10.1667 19.3333C15.25 19.3333 19.3333 15.25 19.3333 10.1667C19.3333 5.08333 15.25 1 10.1667 1Z" fill="white"/>
  </svg>
  