<svg width="20" height="20" viewBox="0 0 20 20" fill="none" >
<path d="M15.5008 7.00113C16.8263 7.00113 17.9108 8.03267 17.9955 9.33676L18.0008 9.50113V15.5008C18.0008 16.8263 16.9693 17.9108 15.6652 17.9955L15.5008 18.0008H9.50113C8.17565 18.0008 7.09109 16.9693 7.00645 15.6652L7.00113 15.5008V9.50113C7.00113 8.17565 8.03267 7.09109 9.33676 7.00645L9.50113 7.00113H15.5008ZM15.5008 8.00113H9.50113C8.72144 8.00113 8.08068 8.59602 8.008 9.35667L8.00113 9.50113V15.5008C8.00113 16.2805 8.59602 16.9213 9.35667 16.9939L9.50113 17.0008H15.5008C16.2805 17.0008 16.9213 16.4059 16.9939 15.6453L17.0008 15.5008V9.50113C17.0008 8.72144 16.4059 8.08068 15.6453 8.008L15.5008 8.00113ZM12.501 9.00113C12.7464 9.00113 12.9506 9.17801 12.9929 9.41126L13.001 9.50113L13 12.001L15.5011 12.0011C15.7773 12.0011 16.0011 12.225 16.0011 12.5011C16.0011 12.7466 15.8243 12.9507 15.591 12.9931L15.5011 13.0011L13 13.001L13.001 15.5011C13.001 15.7773 12.7771 16.0011 12.501 16.0011C12.2555 16.0011 12.0514 15.8243 12.009 15.591L12.001 15.5011L12 13.001L9.50113 13.0011C9.22499 13.0011 9.00113 12.7773 9.00113 12.5011C9.00113 12.2557 9.17801 12.0515 9.41126 12.0092L9.50113 12.0011L12 12.001L12.001 9.50113C12.001 9.22499 12.2248 9.00113 12.501 9.00113ZM12.663 3.69617L12.7107 3.85357L13.286 6.001H12.25L11.7448 4.11239C11.543 3.35926 10.8025 2.89431 10.0489 3.02098L9.90763 3.05173L4.11239 4.60456C3.35926 4.80636 2.89431 5.54682 3.02098 6.30036L3.05173 6.44168L4.60456 12.2369C4.77949 12.8898 5.35918 13.3261 6.00129 13.3482L6.00141 14.3488C4.97445 14.3279 4.03721 13.6706 3.69081 12.6663L3.63864 12.4957L2.08581 6.7005C1.74275 5.42018 2.45843 4.1056 3.69617 3.68632L3.85357 3.63864L9.64881 2.08581C10.8758 1.75704 12.1342 2.40063 12.606 3.54421L12.663 3.69617Z" fill="#242424"/>
</svg>
