<svg width="16" height="16" viewBox="0 0 16 16" fill="none" xmlns="http://www.w3.org/2000/svg">
<path fill-rule="evenodd" clip-rule="evenodd" d="M15 1H4.66667V3.66667H5.66667V2H14V9.33333C14 9.88333 13.55 10.3333 13 10.3333H12.3333V11.3333H13C14.1033 11.3333 15 10.4367 15 9.33333V1ZM10.3333 5.66667V13C10.3333 13.55 9.88333 14 9.33333 14H3C2.45 14 2 13.55 2 13V5.66667H10.3333ZM11.3333 4.66667H1V13C1 14.1033 1.89667 15 3 15H9.33333C10.4367 15 11.3333 14.1033 11.3333 13V4.66667Z" fill="black"/>
</svg>
