<svg width="20" height="20" viewBox="0 0 20 20" fill="none" xmlns="http://www.w3.org/2000/svg">
<path d="M12.4829 18.2949C11.6841 19.1321 10.3913 18.6818 10.052 17.7045C9.77205 16.8982 9.4084 15.9327 9.05406 15.2218C7.99442 13.0959 7.37583 11.8863 5.66974 10.3728C5.44337 10.172 5.15163 10.0102 4.82905 9.88266C3.69991 9.43634 2.63809 8.26658 2.91581 6.87796L3.26885 5.11279C3.45455 4.18425 4.14894 3.44032 5.06251 3.19117L10.6622 1.66397C13.2078 0.969731 15.8017 2.60447 16.2737 5.20042L16.9576 8.96212C17.2924 10.8036 15.8777 12.4988 14.006 12.4988H13.1225L13.1328 12.551C13.2129 12.9592 13.3093 13.5213 13.3738 14.1339C13.438 14.7442 13.4721 15.4183 13.4218 16.0465C13.3725 16.6628 13.2379 17.2956 12.9176 17.7761C12.8081 17.9404 12.6455 18.1245 12.4829 18.2949Z" fill="#242424"/>
</svg>
