<svg width="20" height="20" viewBox="0 0 20 20" fill="none" xmlns="http://www.w3.org/2000/svg">
<path d="M10.052 17.7045C10.3913 18.6818 11.6841 19.1321 12.4829 18.2949C12.6455 18.1245 12.8081 17.9404 12.9176 17.7761C13.2379 17.2956 13.3725 16.6628 13.4218 16.0465C13.4721 15.4183 13.438 14.7442 13.3738 14.1339C13.3093 13.5213 13.2129 12.9592 13.1328 12.551C13.1294 12.5333 13.1259 12.5159 13.1225 12.4988H14.006C15.8777 12.4988 17.2924 10.8036 16.9576 8.96212L16.2737 5.20042C15.8017 2.60447 13.2078 0.969731 10.6622 1.66397L5.06251 3.19117C4.14894 3.44032 3.45455 4.18425 3.26885 5.11279L2.91581 6.87796C2.63809 8.26658 3.69991 9.43634 4.82905 9.88266C5.15163 10.0102 5.44337 10.172 5.66974 10.3728C7.37583 11.8863 7.99442 13.0959 9.05406 15.2218C9.4084 15.9327 9.77205 16.8982 10.052 17.7045ZM12.0165 12.1202L12.0169 12.1217L12.0187 12.129L12.0262 12.1602C12.0328 12.188 12.0426 12.2297 12.0549 12.2838C12.0793 12.3921 12.1135 12.5495 12.1515 12.7434C12.2277 13.1321 12.3188 13.6637 12.3793 14.2386C12.4401 14.8159 12.4685 15.423 12.425 15.9667C12.3806 16.5222 12.2652 16.9519 12.0855 17.2214C12.0264 17.3101 11.9138 17.4427 11.7594 17.6046C11.5605 17.813 11.1314 17.7645 10.9967 17.3765C10.7141 16.5627 10.3334 15.5468 9.94904 14.7757C8.88216 12.6353 8.19326 11.2747 6.33336 9.62475C5.99304 9.32284 5.58878 9.10768 5.19665 8.95268C4.31631 8.6047 3.75035 7.80427 3.89639 7.07408L4.24943 5.3089C4.36085 4.75178 4.77748 4.30542 5.32562 4.15593L10.9254 2.62873C12.9052 2.08877 14.9227 3.36023 15.2898 5.37931L15.9738 9.14101C16.197 10.3687 15.2538 11.4988 14.006 11.4988H12.5015C12.3476 11.4988 12.2022 11.5697 12.1074 11.6911C12.0127 11.8124 11.9792 11.9708 12.0165 12.1202C12.0165 12.1202 12.0165 12.1201 12.0165 12.1202Z" fill="#242424"/>
</svg>
