<svg width="20" height="20" viewBox="0 0 20 20" fill="none" xmlns="http://www.w3.org/2000/svg">
<path d="M5.99805 2C4.89348 2 3.99805 2.89543 3.99805 4V8.20703C4.32033 8.11588 4.65464 8.05337 4.99805 8.02242V4C4.99805 3.44772 5.44576 3 5.99805 3H9.99805V6.5C9.99805 7.32843 10.6696 8 11.498 8H14.998V16C14.998 16.5523 14.5503 17 13.998 17H9.74088C9.42753 17.3794 9.06426 17.7161 8.66113 18H13.998C15.1026 18 15.998 17.1046 15.998 16V7.41421C15.998 7.01639 15.84 6.63486 15.5587 6.35355L11.6445 2.43934C11.3632 2.15804 10.9817 2 10.5838 2H5.99805ZM14.7909 7H11.498C11.2219 7 10.998 6.77614 10.998 6.5V3.20711L14.7909 7ZM3.06279 10.442C3.36608 11.5231 2.72009 12.642 1.63214 12.9199L1.17109 13.0377C1.15611 13.1896 1.14844 13.3438 1.14844 13.4999C1.14844 13.6875 1.15954 13.8725 1.1811 14.0541L1.53065 14.1368C2.65009 14.4014 3.31608 15.5536 2.98674 16.6557L2.8604 17.0785C3.11758 17.2817 3.39732 17.4559 3.69504 17.5964L4.02004 17.2523C4.80986 16.416 6.14062 16.4167 6.92956 17.2538L7.26692 17.6118C7.55933 17.4769 7.83471 17.3095 8.08878 17.1142L7.93263 16.5575C7.62933 15.4764 8.27533 14.3575 9.36329 14.0795L9.82382 13.9619C9.8388 13.81 9.84647 13.6559 9.84647 13.4999C9.84647 13.3121 9.83535 13.127 9.81376 12.9452L9.46476 12.8627C8.34533 12.598 7.67934 11.4459 8.00868 10.3438L8.13487 9.92148C7.87764 9.71819 7.59785 9.54392 7.30006 9.4034L6.97538 9.74719C6.18556 10.5835 4.8548 10.5828 4.06586 9.74565L3.72851 9.3877C3.43608 9.52258 3.16069 9.68988 2.9066 9.88518L3.06279 10.442ZM5.49746 14.4999C4.94517 14.4999 4.49746 14.0521 4.49746 13.4999C4.49746 12.9476 4.94517 12.4999 5.49746 12.4999C6.04974 12.4999 6.49746 12.9476 6.49746 13.4999C6.49746 14.0521 6.04974 14.4999 5.49746 14.4999Z" fill="#242424"/>
</svg>
