<svg width="24" height="24" viewBox="0 0 24 24" fill="none" xmlns="http://www.w3.org/2000/svg">
<path d="M18.2498 20.499C18.664 20.4988 19 20.8345 19 21.2487C19 21.663 18.6644 21.9988 18.2502 21.999L5.25022 22.0027C4.836 22.0028 4.5 21.6672 4.5 21.2529C4.5 20.8387 4.83557 20.5028 5.24978 20.5027L18.2498 20.499ZM11.6482 2.01075L11.75 2.00391C12.1297 2.00391 12.4435 2.28606 12.4932 2.65214L12.5 2.75391L12.499 16.4389L16.2208 12.7186C16.4871 12.4523 16.9038 12.4282 17.1974 12.6461L17.2815 12.7187C17.5477 12.985 17.5719 13.4016 17.354 13.6952L17.2814 13.7793L12.2837 18.776C12.0176 19.042 11.6012 19.0664 11.3076 18.8488L11.2235 18.7763L6.22003 13.7797C5.92694 13.487 5.92661 13.0121 6.21931 12.719C6.48539 12.4525 6.90204 12.4281 7.1958 12.6457L7.27997 12.7183L10.999 16.4319L11 2.75391C11 2.37421 11.2822 2.06042 11.6482 2.01075L11.75 2.00391L11.6482 2.01075Z" fill="#242424"/>
</svg>
