<svg width="20" height="20" viewBox="0 0 20 20" fill="none">
<path d="M17.1794 2.92494C16.0271 1.7131 14.1027 1.68882 12.9203 2.87121L3.54545 12.2456C3.21763 12.5734 2.99008 12.9879 2.88953 13.4405L2.01191 17.3904C1.97483 17.5573 2.02559 17.7316 2.14649 17.8524C2.26739 17.9733 2.44166 18.024 2.60855 17.9869L6.53494 17.1138C7.00237 17.0098 7.43048 16.7748 7.76907 16.4362L11.8314 12.3738C11.6592 12.0407 11.5476 11.6712 11.5111 11.2799L7.06196 15.7291C6.85781 15.9332 6.59969 16.0749 6.31786 16.1376L3.15855 16.8402L3.86572 13.6574C3.92502 13.3905 4.05921 13.146 4.25254 12.9527L12.2489 4.95669L15.0416 7.74934L14.7798 8.01111C15.1712 8.04756 15.5407 8.15918 15.8738 8.33138L17.1271 7.07808C18.2681 5.93704 18.2913 4.09436 17.1794 2.92494ZM13.6274 3.57834C14.4123 2.79343 15.6898 2.80955 16.4547 3.614C17.1928 4.3903 17.1774 5.61352 16.42 6.37098L15.7487 7.04223L12.9561 4.2496L13.6274 3.57834ZM16.498 10.998C16.498 12.1026 15.6026 12.998 14.498 12.998C13.3935 12.998 12.498 12.1026 12.498 10.998C12.498 9.89348 13.3935 8.99805 14.498 8.99805C15.6026 8.99805 16.498 9.89348 16.498 10.998ZM17.998 15.498C17.998 16.7433 16.998 17.998 14.498 17.998C11.998 17.9981 10.998 16.7479 10.998 15.498C10.998 14.6696 11.6696 13.998 12.498 13.998H16.498C17.3265 13.998 17.998 14.6696 17.998 15.498Z" fill="#242424"/>
</svg>
