<svg width="16" height="16" viewBox="0 0 16 16" fill="none" xmlns="http://www.w3.org/2000/svg">
  <path d="M7.33336 5.66662H8.66669V9.99995H7.33336V5.66662Z" fill="#E82010" />
  <path
    d="M8.00002 12.6666C8.46026 12.6666 8.83336 12.2935 8.83336 11.8333C8.83336 11.373 8.46026 11 8.00002 11C7.53979 11 7.16669 11.373 7.16669 11.8333C7.16669 12.2935 7.53979 12.6666 8.00002 12.6666Z"
    fill="#E82010" />
  <path fill-rule="evenodd" clip-rule="evenodd"
    d="M9.70002 2.19995L15.3667 12C16.1667 13.3333 15.2 15 13.6667 15H2.36669C0.833356 15 -0.133311 13.3333 0.633356 12L6.23336 2.19995C6.63336 1.53328 7.30002 1.19995 7.96669 1.19995C8.63336 1.19995 9.30002 1.53328 9.70002 2.19995ZM13.6667 14C14.1667 14 14.4334 13.6666 14.5 13.5C14.6 13.3333 14.7667 12.9666 14.5334 12.5L8.86669 2.69995C8.60002 2.23328 8.16669 2.19995 8.00002 2.19995C7.83336 2.19995 7.40002 2.23328 7.13336 2.69995L1.46669 12.5C1.20002 12.9666 1.36669 13.3333 1.46669 13.5C1.56669 13.6666 1.80002 14 2.33336 14H13.6667Z"
    fill="#E82010" />
</svg>
