<svg width="20" height="20" viewBox="0 0 20 20" fill="none" xmlns="http://www.w3.org/2000/svg">
<path d="M3.25518 11.6021C3.93863 8.32689 6.79046 6 9.99611 6C13.2017 6 16.0535 8.32688 16.737 11.6021C16.7935 11.8725 17.0583 12.0459 17.3286 11.9895C17.599 11.933 17.7724 11.6682 17.7159 11.3979C16.9386 7.67312 13.6895 5 9.99611 5C6.30269 5 3.05351 7.67311 2.27627 11.3979C2.21986 11.6682 2.39327 11.933 2.66359 11.9895C2.93391 12.0459 3.19878 11.8725 3.25518 11.6021ZM9.99609 8C8.0631 8 6.49609 9.567 6.49609 11.5C6.49609 13.433 8.0631 15 9.99609 15C11.9291 15 13.4961 13.433 13.4961 11.5C13.4961 9.567 11.9291 8 9.99609 8ZM7.49609 11.5C7.49609 10.1193 8.61538 9 9.99609 9C11.3768 9 12.4961 10.1193 12.4961 11.5C12.4961 12.8807 11.3768 14 9.99609 14C8.61538 14 7.49609 12.8807 7.49609 11.5Z" fill="#242424"/>
</svg>
