<svg width="17px" height="16px" viewBox="0 0 17 16" version="1.1">
  <path d="M12.5 8C12.7761 8 13 8.15498 13 8.34615L13 12.1538C13 12.345 12.7761 12.5 12.5 12.5C12.2239 12.5 12 12.345 12 12.1538L12 8.34615C12 8.15498 12.2239 8 12.5 8L12.5 8ZM12.5 15C12.9142 15 13.25 14.6642 13.25 14.25C13.25 13.8358 12.9142 13.5 12.5 13.5C12.0858 13.5 11.75 13.8358 11.75 14.25C11.75 14.6642 12.0858 15 12.5 15L12.5 15ZM2.5 0C1.11929 0 0 1.11929 0 2.5L0 11.5C0 12.8807 1.11929 14 2.5 14L7.59971 14C7.43777 13.6832 7.30564 13.3486 7.20703 13L2.5 13C1.67157 13 1 12.3284 1 11.5L1 5L5.08579 5C5.48361 5 5.86514 4.84196 6.14645 4.56066L7.70711 3L13.5 3C14.3284 3 15 3.67157 15 4.5L15 6.59971C15.3578 6.78261 15.6929 7.0035 16 7.2572L16 4.5C16 3.11929 14.8807 2 13.5 2L7.70711 2L6.21967 0.51256C5.89148 0.18437 5.44636 0 4.98223 0L2.5 0L2.5 0ZM1 2.5C1 1.67157 1.67157 1 2.5 1L4.98223 1C5.18115 1 5.37191 1.07902 5.51256 1.21967L6.79289 2.5L5.43934 3.85355C5.34557 3.94732 5.21839 4 5.08579 4L1 4L1 2.5L1 2.5ZM17 11.5C17 13.9853 14.9853 16 12.5 16C10.0147 16 8 13.9853 8 11.5C8 9.0147 10.0147 7 12.5 7C14.9853 7 17 9.0147 17 11.5L17 11.5Z" id="Shape" fill="#242424" fill-rule="evenodd" stroke="none" />
</svg>