<svg xmlns="http://www.w3.org/2000/svg" width="20" height="20" viewBox="0 0 20 20" fill="none">
<path d="M4 2C2.61929 2 1.5 3.11929 1.5 4.5V13.5C1.5 14.8807 2.61929 16 4 16H9.09971C8.93777 15.6832 8.80564 15.3486 8.70703 15H4C3.17157 15 2.5 14.3284 2.5 13.5V7H6.58579C6.98361 7 7.36514 6.84196 7.64645 6.56066L9.20711 5H15C15.8284 5 16.5 5.67157 16.5 6.5V8.59971C16.8578 8.78261 17.1929 9.00353 17.5 9.25716V6.5C17.5 5.11929 16.3807 4 15 4H9.20711L7.71967 2.51256C7.39148 2.18437 6.94636 2 6.48223 2H4ZM2.5 4.5C2.5 3.67157 3.17157 3 4 3H6.48223C6.68115 3 6.87191 3.07902 7.01256 3.21967L8.29289 4.5L6.93934 5.85355C6.84557 5.94732 6.71839 6 6.58579 6H2.5V4.5Z" fill="#B5B5B5"/>
<path fill-rule="evenodd" clip-rule="evenodd" d="M14 18C16.4853 18 18.5 15.9853 18.5 13.5C18.5 11.0147 16.4853 9 14 9C11.5147 9 9.5 11.0147 9.5 13.5C9.5 15.9853 11.5147 18 14 18ZM12 13C11.7239 13 11.5 13.2239 11.5 13.5C11.5 13.7761 11.7239 14 12 14H16C16.2761 14 16.5 13.7761 16.5 13.5C16.5 13.2239 16.2761 13 16 13H12Z" fill="#242424"/>
</svg>