<svg width="24" height="24" viewBox="0 0 24 24" fill="none" xmlns="http://www.w3.org/2000/svg">
<path fill-rule="evenodd" clip-rule="evenodd" d="M22.5 1.5V16.5C22.5 18.0978 21.2512 19.4037 19.6763 19.4949L19.5 19.5H12.5L8.9875 23.0125C8.6305 23.369 8.1925 23.5285 7.7625 23.5285C6.90797 23.5285 6.08639 22.8981 6.00637 21.9305L6 21.775V19.5H4.5C2.90218 19.5 1.59633 18.2512 1.50509 16.6763L1.5 16.5V1.5H22.5ZM21 3H3V16.5C3 17.2784 3.59615 17.9203 4.35576 17.9931L4.5 18H7.5V21.775C7.5 21.959 7.70534 22.0957 7.87252 21.9947L7.9265 21.952L11.8785 18H19.5C20.2784 18 20.9203 17.4038 20.9931 16.6442L21 16.5V3ZM14.097 11C13.977 14.0245 12.7965 16 12 16C11.2292 16 10.0988 14.1499 9.91788 11.2894L9.903 11H14.097ZM17.475 11C17.2805 13.154 15.8445 14.9445 13.888 15.6605C14.5264 14.6353 14.9693 13.1044 15.0795 11.3531L15.097 11H17.475ZM8.903 11C8.9725 12.898 9.431 14.5675 10.112 15.6605C8.22845 14.9705 6.82662 13.2851 6.55169 11.2378L6.525 11H8.903ZM12 5C12.7708 5 13.9012 6.8501 14.0821 9.71061L14.097 10H9.903C10.023 6.9755 11.2035 5 12 5ZM13.888 5.3395C15.772 6.02946 17.1734 7.71488 17.4483 9.7622L17.475 10H15.0965C15.0275 8.102 14.569 6.4325 13.888 5.3395ZM10.112 5.3395C9.47356 6.36466 9.03068 7.89562 8.92055 9.64689L8.903 10H6.525C6.7195 7.846 8.1555 6.0555 10.112 5.3395Z" fill="black"/>
</svg>
