<?xml version="1.0" encoding="UTF-8"?><svg id="Layer_1" xmlns="http://www.w3.org/2000/svg" viewBox="0 0 56 56"><rect width="56" height="56" fill="none" stroke-width="0"/><path d="m35.36,34.37h-14.64l-6.27,10.95c.75.38,1.61.63,2.17.63,5.76,0,17.52-.09,23.35-.09.6,0,1.16-.2,1.67-.53l-6.27-10.97Z" fill="#4185f3" stroke-width="0"/><path d="m14.44,45.32l6.27-10.95h-12.71c0,.76.26,1.46.69,2.25,1.18,2.21,3.18,5.74,4.35,7.59.29.45,1.44,1.14,1.39,1.11h0Z" fill="#1767d1" stroke-width="0"/><path d="m35.36,34.37l6.27,10.97c.81-.52,1.48-1.33,1.91-2.09.97-1.7,2.61-4.53,3.74-6.44.53-.89.73-1.69.72-2.44h-12.64Z" fill="#e94235" stroke-width="0"/><path d="m20.71,34.37l7.31-12.72-6.54-10.9c-.71.46-1.31,1.1-1.59,1.58-2.85,5-8.6,15.26-11.49,20.33-.3.52-.44,1.11-.41,1.71h12.71Z" fill="#30a753" stroke-width="0"/><path d="m35.35,34.37l-7.33-12.72,6.36-10.89c.71.47,1.48,1.08,1.76,1.56,2.85,5,8.6,15.26,11.49,20.33.3.52.39,1.11.36,1.71h-12.64Z" fill="#f9bc00" stroke-width="0"/><path d="m21.49,10.76l6.54,10.9,6.36-10.89c-.66-.38-1.59-.61-2.49-.64-2.5-.08-6.56-.12-8.75-.02-.54.02-1.65.65-1.66.65Z" fill="#0f8038" stroke-width="0"/></svg>