<svg width="16" height="16" fill="none" xmlns="http://www.w3.org/2000/svg">
  <path fill-rule="evenodd" clip-rule="evenodd" d="M5.16667 4.81818c-.46024 0-.83334.35614-.83334.79546 0 .43931.3731.79545.83334.79545.46023 0 .83333-.35614.83333-.79545 0-.43932-.3731-.79546-.83333-.79546ZM7.24 8.25455l-1-1.23137-2.08667 2.56773h7.69337L9 6.09091 7.24 8.25455ZM13 11.1818h-2c-.5533 0-1 .4264-1 .9546v1.9091H4c-.55 0-1-.4296-1-.9546V1.95455h10v9.22725ZM2 1v12.0909C2 14.1441 2.89667 15 4 15h6.6667L14 11.8182V1H2Z" fill="#fff"/>
</svg>
