<svg width="16" height="16" viewBox="0 0 16 16" fill="none" xmlns="http://www.w3.org/2000/svg">
<path fill-rule="evenodd" clip-rule="evenodd" d="M7.33334 11.3333L8.66668 11.3333V6.99996H7.33334V11.3333ZM8.00001 5.99996C8.46025 5.99996 8.83334 5.62686 8.83334 5.16663C8.83334 4.70639 8.46025 4.33329 8.00001 4.33329C7.53977 4.33329 7.16668 4.70639 7.16668 5.16663C7.16668 5.62686 7.53977 5.99996 8.00001 5.99996ZM8.00001 14.3333C4.50001 14.3333 1.66668 11.5 1.66668 7.99996C1.66668 4.49996 4.50001 1.66663 8.00001 1.66663C11.5 1.66663 14.3333 4.49996 14.3333 7.99996C14.3333 11.5 11.5 14.3333 8.00001 14.3333ZM8.00001 15.3333C12.0667 15.3333 15.3333 12.0666 15.3333 7.99996C15.3333 3.93329 12.0667 0.666626 8.00001 0.666626C3.93334 0.666626 0.666676 3.93329 0.666676 7.99996C0.666675 12.0666 3.93334 15.3333 8.00001 15.3333Z" fill="#2238DF"/>
</svg>
