<svg width="16" height="16" viewBox="0 0 16 16" fill="currentColor" xmlns="http://www.w3.org/2000/svg">
    <path fill-rule="evenodd" clip-rule="evenodd"
        d="M3.13994 11.6527L2.19728 12.5954C2.00194 12.7907 2.00194 13.1074 2.19728 13.3027C2.29461 13.4001 2.42261 13.4487 2.55061 13.4487C2.67861 13.4487 2.80661 13.4001 2.90461 13.3027L3.84728 12.3594C4.04261 12.1641 4.04261 11.8481 3.84728 11.6527C3.65194 11.4574 3.33528 11.4574 3.13994 11.6527ZM7.49994 13.1661C7.22394 13.1661 6.99994 13.3901 6.99994 13.6661V14.9994C6.99994 15.2754 7.22394 15.4994 7.49994 15.4994C7.77594 15.4994 7.99994 15.2754 7.99994 14.9994V13.6661C7.99994 13.3901 7.77594 13.1661 7.49994 13.1661ZM7.62994 11.1594C7.58661 11.1614 7.54394 11.1661 7.49994 11.1661C5.75394 11.1661 4.33328 9.74539 4.33328 7.99939C4.33328 6.25339 5.75394 4.83272 7.49994 4.83272C7.62594 4.83272 7.74928 4.84206 7.87061 4.85672C8.13128 4.54539 8.42994 4.26872 8.75528 4.02606C8.35928 3.90139 7.93794 3.83272 7.49994 3.83272C5.19861 3.83272 3.33328 5.69806 3.33328 7.99939C3.33328 10.3007 5.19861 12.1661 7.49994 12.1661C7.82461 12.1661 8.13928 12.1254 8.44261 12.0547C8.13861 11.7887 7.86528 11.4894 7.62994 11.1594ZM2.33394 7.99939C2.33394 7.72339 2.10994 7.49939 1.83394 7.49939H0.50061C0.22461 7.49939 0.000610352 7.72339 0.000610352 7.99939C0.000610352 8.27539 0.22461 8.49939 0.50061 8.49939H1.83394C2.10994 8.49939 2.33394 8.27539 2.33394 7.99939ZM7.49994 2.83272C7.77594 2.83272 7.99994 2.60872 7.99994 2.33272V0.99939C7.99994 0.72339 7.77594 0.49939 7.49994 0.49939C7.22394 0.49939 6.99994 0.72339 6.99994 0.99939V2.33272C6.99994 2.60872 7.22394 2.83272 7.49994 2.83272ZM11.8333 3.99939C9.53194 3.99939 7.66661 5.86472 7.66661 8.16606C7.66661 10.4674 9.53194 12.3327 11.8333 12.3327C14.1346 12.3327 15.9999 10.4674 15.9999 8.16606C15.9999 5.86472 14.1346 3.99939 11.8333 3.99939ZM3.13994 4.34606C3.23728 4.44406 3.36594 4.49272 3.49328 4.49272C3.62128 4.49272 3.74928 4.44406 3.84728 4.34606C4.04261 4.15072 4.04261 3.83472 3.84728 3.63939L2.90394 2.69606C2.70861 2.50072 2.39261 2.50072 2.19728 2.69606C2.00194 2.89139 2.00194 3.20806 2.19728 3.40339L3.13994 4.34606Z" />
</svg>