<svg width="20" height="20" viewBox="0 0 20 20" fill="none" xmlns="http://www.w3.org/2000/svg">
<path d="M10.052 2.29515C10.3913 1.31786 11.6841 0.867587 12.4829 1.70471C12.6455 1.87514 12.8081 2.05929 12.9176 2.22352C13.2379 2.70403 13.3725 3.33682 13.4218 3.95318C13.4721 4.58132 13.438 5.25544 13.3738 5.86571C13.3093 6.47832 13.2129 7.04046 13.1328 7.44864C13.1294 7.46633 13.1259 7.48374 13.1225 7.50087H14.006C15.8777 7.50087 17.2924 9.19601 16.9576 11.0375L16.2737 14.7992C15.8017 17.3952 13.2078 19.0299 10.6622 18.3357L5.06251 16.8085C4.14894 16.5593 3.45455 15.8154 3.26885 14.8869L2.91581 13.1217C2.63809 11.7331 3.69991 10.5633 4.82905 10.117C5.15163 9.98948 5.44337 9.82765 5.66974 9.62683C7.37583 8.11332 7.99442 6.90374 9.05406 4.77782C9.4084 4.06692 9.77205 3.10141 10.052 2.29515ZM12.0165 7.87949L12.0169 7.87794L12.0187 7.8706L12.0262 7.8395C12.0328 7.81166 12.0426 7.7699 12.0549 7.7158C12.0793 7.60756 12.1135 7.45017 12.1515 7.25622C12.2277 6.86753 12.3188 6.33591 12.3793 5.76102C12.4401 5.18379 12.4685 4.57666 12.425 4.03293C12.3806 3.47742 12.2652 3.0477 12.0855 2.77822C12.0264 2.68957 11.9138 2.5569 11.7594 2.39508C11.5605 2.18663 11.1314 2.23515 10.9967 2.62314C10.7141 3.43696 10.3334 4.45281 9.94904 5.22391C8.88216 7.36435 8.19326 8.72494 6.33336 10.3749C5.99304 10.6768 5.58878 10.892 5.19665 11.047C4.31631 11.3949 3.75035 12.1954 3.89639 12.9256L4.24943 14.6907C4.36085 15.2479 4.77748 15.6942 5.32562 15.8437L10.9254 17.3709C12.9052 17.9109 14.9227 16.6394 15.2898 14.6203L15.9738 10.8586C16.197 9.63096 15.2538 8.50087 14.006 8.50087H12.5015C12.3476 8.50087 12.2022 8.42993 12.1074 8.30857C12.0127 8.18725 11.9792 8.02882 12.0165 7.87949C12.0165 7.87945 12.0165 7.87952 12.0165 7.87949Z" fill="#242424"/>
</svg>
