<svg width="20" height="20" viewBox="0 0 20 20" fill="none" xmlns="http://www.w3.org/2000/svg">
<path d="M12.4829 1.70471C11.6841 0.867587 10.3913 1.31786 10.052 2.29515C9.77205 3.10141 9.4084 4.06692 9.05406 4.77782C7.99442 6.90374 7.37583 8.11332 5.66974 9.62683C5.44337 9.82765 5.15163 9.98948 4.82905 10.117C3.69991 10.5633 2.63809 11.7331 2.91581 13.1217L3.26885 14.8869C3.45455 15.8154 4.14894 16.5593 5.06251 16.8085L10.6622 18.3357C13.2078 19.0299 15.8017 17.3952 16.2737 14.7992L16.9576 11.0375C17.2924 9.19601 15.8777 7.50087 14.006 7.50087H13.1225L13.1328 7.44864C13.2129 7.04046 13.3093 6.47832 13.3738 5.86571C13.438 5.25544 13.4721 4.58132 13.4218 3.95318C13.3725 3.33682 13.2379 2.70403 12.9176 2.22352C12.8081 2.05929 12.6455 1.87514 12.4829 1.70471Z" fill="#242424"/>
</svg>
