<svg width="20" height="20" viewBox="0 0 20 20" fill="currentColor" xmlns="http://www.w3.org/2000/svg">
<path d="M5.32449 3.4639C5.52488 3.07832 5.84418 2.95987 6.04289 3.02643C6.39906 3.14573 6.56083 3.35319 6.63984 3.60858C6.72869 3.89576 6.71788 4.27221 6.63375 4.68738C6.55129 5.09427 6.40852 5.49021 6.28281 5.78964C6.22054 5.93796 6.16379 6.05946 6.12308 6.14298C6.10276 6.18468 6.08652 6.21673 6.07569 6.23773L6.06372 6.26073L6.06111 6.26564C5.97764 6.42052 5.98135 6.60856 6.07149 6.75967C6.16169 6.9109 6.32479 7.00352 6.50087 7.00353L7.99373 7.0036C8.66742 7.00363 9.14834 7.65628 8.94882 8.29975L8.12825 10.9462C7.88575 11.7283 7.06084 12.1715 6.27486 11.9418L2.03128 10.7019C1.72853 10.6135 1.48526 10.3874 1.37492 10.0919L1.06345 9.25781C0.892096 8.79892 1.07836 8.28346 1.50347 8.04011L2.66464 7.37542C3.24738 7.04184 3.72186 6.54768 4.0315 5.95188L5.32449 3.4639ZM7.99378 6.0036L7.27527 6.00357C7.39813 5.69135 7.52994 5.29994 7.61383 4.88599C7.71239 4.3996 7.75553 3.83137 7.59516 3.31302C7.42495 2.76286 7.03433 2.30392 6.36051 2.07821C5.49775 1.78922 4.753 2.39503 4.43717 3.00276L3.14417 5.49074C2.923 5.91631 2.58409 6.26928 2.16785 6.50755L1.00667 7.17225C0.156451 7.65894 -0.216076 8.68987 0.126642 9.60764L0.438105 10.4417C0.658781 11.0327 1.14532 11.4849 1.75082 11.6618L5.9944 12.9017C7.30437 13.2844 8.67923 12.5459 9.0834 11.2424L9.90396 8.5959C10.303 7.30897 9.34116 6.00366 7.99378 6.0036ZM14.6773 16.5429C14.4769 16.9285 14.1576 17.047 13.9589 16.9804C13.6027 16.8611 13.441 16.6536 13.362 16.3982C13.2731 16.1111 13.2839 15.7346 13.368 15.3194C13.4505 14.9126 13.5933 14.5166 13.719 14.2172C13.7813 14.0689 13.838 13.9474 13.8787 13.8638C13.899 13.8221 13.9153 13.7901 13.9261 13.7691L13.9381 13.7461L13.9407 13.7412C14.0242 13.5863 14.0204 13.3983 13.9303 13.2471C13.8401 13.0959 13.677 13.0033 13.5009 13.0033L12.0081 13.0032C11.3344 13.0032 10.8535 12.3505 11.053 11.7071L11.8735 9.06058C12.116 8.27847 12.941 7.83536 13.7269 8.06501L17.9705 9.3049C18.2733 9.39336 18.5165 9.61947 18.6269 9.91494L18.9383 10.749C19.1097 11.2079 18.9234 11.7234 18.4983 11.9667L17.3372 12.6314C16.7544 12.965 16.2799 13.4591 15.9703 14.0549L14.6773 16.5429ZM12.008 14.0032L12.7265 14.0033C12.6037 14.3155 12.4719 14.7069 12.388 15.1208C12.2894 15.6072 12.2463 16.1754 12.4066 16.6938C12.5768 17.244 12.9675 17.7029 13.6413 17.9286C14.504 18.2176 15.2488 17.6118 15.5646 17.0041L16.8576 14.5161C17.0788 14.0905 17.4177 13.7375 17.8339 13.4993L18.9951 12.8346C19.8453 12.3479 20.2179 11.317 19.8752 10.3992L19.5637 9.56511C19.343 8.97416 18.8565 8.52195 18.251 8.34504L14.0074 7.10514C12.6974 6.72239 11.3226 7.46092 10.9184 8.76443L10.0978 11.4109C9.6988 12.6979 10.6606 14.0032 12.008 14.0032Z" fill="#242424"/>
</svg>
