<svg width="48" height="48" viewBox="0 0 48 48" fill="none" xmlns="http://www.w3.org/2000/svg">
  <path class="inner-circle"
    d="M48 24C48 37.2548 37.2548 48 24 48C10.7452 48 0 37.2548 0 24C0 10.7452 10.7452 0 24 0C37.2548 0 48 10.7452 48 24ZM4.008 24C4.008 35.0413 12.9587 43.992 24 43.992C35.0413 43.992 43.992 35.0413 43.992 24C43.992 12.9587 35.0413 4.008 24 4.008C12.9587 4.008 4.008 12.9587 4.008 24Z"
    fill="#EDEDED" />
  <path class="outer-circle"
    d="M24 45.996C24 47.1028 23.1012 48.0087 21.9982 47.9164C17.9573 47.5782 14.0561 46.2202 10.6663 43.9553C6.71953 41.3181 3.64339 37.5698 1.82689 33.1844C0.0103876 28.799 -0.464892 23.9734 0.461154 19.3178C1.3872 14.6623 3.67298 10.3859 7.02944 7.02944C10.3859 3.67298 14.6623 1.3872 19.3178 0.461153C23.9734 -0.464892 28.799 0.0103887 33.1844 1.82689C37.5698 3.6434 41.3181 6.71954 43.9553 10.6663C46.2202 14.0561 47.5782 17.9573 47.9164 21.9982C48.0087 23.1012 47.1028 24 45.996 24V24C44.8892 24 44.0024 23.1005 43.8917 21.9993C43.5651 18.7522 42.4471 15.6234 40.6227 12.893C38.426 9.60537 35.3037 7.04295 31.6506 5.5298C27.9975 4.01665 23.9778 3.62074 20.0998 4.39214C16.2217 5.16353 12.6595 7.06759 9.86352 9.86352C7.06759 12.6595 5.16354 16.2217 4.39214 20.0998C3.62074 23.9778 4.01665 27.9975 5.5298 31.6506C7.04295 35.3037 9.60537 38.426 12.893 40.6227C15.6234 42.4471 18.7522 43.5651 21.9993 43.8917C23.1005 44.0024 24 44.8892 24 45.996V45.996Z"
    fill="#E20074" />
</svg>