<svg width="20" height="20" viewBox="0 0 512 512" fill="none" >
  <path d="m503.02 80.983-14.206-8.695-41.688 84.638s-17.716 16.53-39.719 4.404c-22.007-12.122-21.191-36.869-21.191-36.869l46.691-80.177-16.742-6.978S295.843 92.44 289.243 107.722c-22.095 34.524-28.682 77.561-69.381 122.364C179.166 274.883 50.268 344.23 21.699 367.02c-28.569 22.801-26.374 65.804-4.674 88.655 21.699 22.855 62.294 25.587 83.578 5.609 21.284-19.978 118.576-121.711 167.801-160.336 49.233-38.615 182.867-32.387 221.712-73.605 38.839-41.233 12.904-146.36 12.904-146.36zM83.133 434.762c-11.291 12.629-30.673 13.723-43.29 2.437-12.625-11.286-13.703-30.665-2.416-43.299 11.294-12.616 30.673-13.715 43.294-2.428 12.621 11.277 13.698 30.664 2.412 43.29z"/>
</svg>
