<?xml version="1.0" encoding="UTF-8"?><svg id="Layer_1" xmlns="http://www.w3.org/2000/svg" viewBox="0 0 56 56"><rect width="56" height="56" fill="none" stroke-width="0"/><path d="m32.17,32.48l8.26-7.9c-1.72-6.69-8.53-10.72-15.21-9-3.01.77-5.63,2.64-7.34,5.24.13,0,14.29,11.66,14.29,11.66Z" fill="#0364b8" stroke-width="0"/><path d="m23.25,22.3h0c-1.58-.98-3.4-1.49-5.25-1.49-.04,0-.09,0-.13,0-5.52.07-9.94,4.6-9.87,10.12.02,2,.65,3.95,1.8,5.59l12.37-1.55,9.48-7.65-8.4-5.03Z" fill="#0078d4" stroke-width="0"/><path d="m40.42,24.58c-.18-.01-.36-.02-.55-.02-1.11,0-2.2.23-3.22.66h0s-5,2.1-5,2.1l5.52,6.81,9.86,2.4c2.13-3.95.65-8.88-3.3-11.01-1.02-.55-2.15-.87-3.3-.95h0Z" fill="#1490df" stroke-width="0"/><path d="m9.8,36.53c1.87,2.69,4.93,4.29,8.2,4.28h21.87c2.99,0,5.74-1.64,7.15-4.27l-15.38-9.21-21.85,9.2Z" fill="#28a8ea" stroke-width="0"/></svg>