<svg width="12" height="14" fill="none" xmlns="http://www.w3.org/2000/svg">
  <path fill-rule="evenodd" clip-rule="evenodd" d="M9.69231 0h-6v1.82609H1.84615v1.82608H0v8.97823C0 13.3867.62 14 1.38462 14h5.53846c.76461 0 1.38461-.6133 1.38461-1.3696v-.4565h.46154c.76462 0 1.38457-.6132 1.38457-1.3696v-.4565h.4616C11.38 10.3478 12 9.73456 12 8.97826V2.3517L9.69231 0ZM7.38462 12.6304c0 .2517-.20708.4566-.46154.4566H1.38462c-.25447 0-.461543-.2049-.461543-.4566V4.56522h.923073v6.23908c0 .7564.62 1.3696 1.38462 1.3696h4.15385v.4565Zm1.84615-1.8261c0 .2517-.20708.4566-.46154.4566H3.23077c-.25446 0-.46154-.2049-.46154-.4566V2.73913h.92308v6.23913c0 .7563.62 1.36954 1.38461 1.36954h4.15385v.4565Zm1.38463-1.36952H5.07692c-.25446 0-.46154-.20482-.46154-.45652V.913043h4.00001V2.23422c0 .44678.36615.80926.81815.80926h1.64336v5.93478c0 .2517-.2071.45652-.4615.45652Z" fill="#fff"/>
</svg>
