<svg width="24" height="24" viewBox="0 0 24 24" fill="none" xmlns="http://www.w3.org/2000/svg">
<path d="M17.7506 13.9992C18.9927 13.9992 19.9995 15.0061 19.9995 16.2481V16.8235C19.9995 17.7178 19.6799 18.5826 19.0984 19.262C17.529 21.0955 15.1418 22.0004 11.9965 22.0004C8.8506 22.0004 6.46458 21.0952 4.89828 19.2609C4.31852 18.582 4 17.7185 4 16.8258V16.2481C4 15.0061 5.00686 13.9992 6.24888 13.9992H17.7506ZM17.7506 15.4992H6.24888C5.83528 15.4992 5.5 15.8345 5.5 16.2481V16.8258C5.5 17.3614 5.69111 17.8795 6.03897 18.2869C7.29228 19.7546 9.25815 20.5004 11.9965 20.5004C14.7348 20.5004 16.7024 19.7545 17.9588 18.2866C18.3078 17.879 18.4995 17.3601 18.4995 16.8235V16.2481C18.4995 15.8345 18.1642 15.4992 17.7506 15.4992ZM11.9965 2.00391C14.7579 2.00391 16.9965 4.24248 16.9965 7.00391C16.9965 9.76533 14.7579 12.0039 11.9965 12.0039C9.23503 12.0039 6.99646 9.76533 6.99646 7.00391C6.99646 4.24248 9.23503 2.00391 11.9965 2.00391ZM11.9965 3.50391C10.0635 3.50391 8.49646 5.07091 8.49646 7.00391C8.49646 8.9369 10.0635 10.5039 11.9965 10.5039C13.9295 10.5039 15.4965 8.9369 15.4965 7.00391C15.4965 5.07091 13.9295 3.50391 11.9965 3.50391Z" fill="#242424"/>
</svg>
