<?xml version="1.0" encoding="UTF-8"?>
<svg id="Layer_1" xmlns="http://www.w3.org/2000/svg" viewBox="0 0 450 142.43">
  <path d="M274.38,95.36h-59.06s19.6-19.6,19.6-19.6c7.43,4.82,16.5,7.32,26.18,6.44,19.38-1.77,35.09-17.24,37.11-36.59,2.74-26.19-19.24-48.14-45.43-45.36-19.23,2.04-34.62,17.59-36.5,36.84-1.15,11.83,2.74,22.76,9.76,30.93l-28.31,28.31c-1.38,1.38-1.38,3.61,0,4.99l5.82,5.82h0s0,0,0,0h70.98c5.89,0,11.16,4.17,12.02,9.99,1.07,7.27-4.57,13.54-11.64,13.54h-25.59v11.77h25.59c13.7,0,24.71-11.77,23.43-25.73-1.11-12.2-11.73-21.34-23.98-21.34ZM254.86,11.86c18.1-1.44,33.16,13.62,31.72,31.72-1.14,14.25-12.68,25.79-26.92,26.92-18.1,1.44-33.16-13.62-31.72-31.72,1.14-14.25,12.68-25.79,26.92-26.92Z" fill="currentColor"/>
  <path d="M72.06.66c-23.36,0-41.46,7.68-53.81,22.82C6.55,37.83.42,58.26.02,84.21c-.14,8.9.45,16.88,1.12,22.9h11.86c-2.02-16.98-3.82-53.88,14.37-76.19,10-12.27,25.04-18.49,44.69-18.49V.66Z" fill="currentColor"/>
  <path d="M160.79,23.48C148.44,8.34,130.34.66,106.98.66v11.77c19.65,0,34.68,6.22,44.69,18.49,1.45,1.78,2.76,3.65,3.96,5.6h-47.94c-18.57,0-34.52,14.06-35.91,32.58-1.56,20.69,14.83,38.02,35.2,38.02h65.3s5.62-.01,5.62-.01c.67-6.02,1.26-14,1.12-22.9-.4-25.95-6.53-46.38-18.23-60.73ZM83.55,69.63c1.11-12.2,11.73-21.34,23.98-21.34h53.78c5.78,15.7,6.43,33.59,5.73,47.07h-60.06c-13.7,0-24.71-11.77-23.43-25.73Z" fill="currentColor"/>
  <path d="M438.23,1.7v11.45c0,31.05-23.96,57.36-54.96,59.05-33.55,1.83-61.44-24.95-61.44-58.11V1.7h-11.77v11.37c0,37.51,29.13,69.14,66.59,70.91,40.11,1.89,73.34-30.19,73.34-69.89V1.7h-11.77Z" fill="currentColor"/>
  <rect x="333.76" y="95.69" width="92.55" height="11.77" fill="currentColor"/>
</svg>