<svg width="20" height="20" viewBox="0 0 20 20" fill="none">
<path d="M1.90709 7.38266C2.27638 6.24053 2.88473 5.19213 3.68743 4.30364C3.82316 4.15339 4.03612 4.09984 4.22678 4.16802L6.14506 4.85392C6.66514 5.03977 7.23741 4.76883 7.42326 4.24875C7.44153 4.19762 7.45561 4.14507 7.46534 4.09173L7.8308 2.08573C7.86714 1.88627 8.02032 1.7285 8.21861 1.6863C8.7988 1.5628 9.39368 1.5 9.99635 1.5C10.5987 1.5 11.1932 1.56273 11.773 1.68607C11.9713 1.72824 12.1244 1.88591 12.1609 2.08529L12.5273 4.09165C12.6264 4.63497 13.1472 4.9951 13.6905 4.89601C13.744 4.88627 13.7965 4.87219 13.8476 4.85395L15.7659 4.16802C15.9566 4.09984 16.1695 4.15339 16.3053 4.30364C17.108 5.19213 17.7163 6.24053 18.0856 7.38266C18.1479 7.57534 18.0878 7.78658 17.9335 7.91764L16.3786 9.23773C15.9576 9.5952 15.9061 10.2263 16.2636 10.6473C16.2988 10.6887 16.3372 10.7271 16.3786 10.7623L17.9335 12.0824C18.0878 12.2134 18.1479 12.4247 18.0856 12.6173C17.7163 13.7595 17.108 14.8079 16.3053 15.6964C16.1695 15.8466 15.9566 15.9002 15.7659 15.832L13.8476 15.1461C13.3276 14.9602 12.7553 15.2312 12.5694 15.7512C12.5512 15.8024 12.5371 15.8549 12.5273 15.9085L12.1609 17.9147C12.1244 18.1141 11.9713 18.2718 11.773 18.3139C11.1932 18.4373 10.5987 18.5 9.99635 18.5C9.39368 18.5 8.7988 18.4372 8.21861 18.3137C8.02032 18.2715 7.86714 18.1137 7.8308 17.9143L7.46535 15.9084C7.36627 15.365 6.8455 15.0049 6.30217 15.104C6.24875 15.1137 6.1962 15.1278 6.14515 15.1461L4.22678 15.832C4.03612 15.9002 3.82316 15.8466 3.68743 15.6964C2.88473 14.8079 2.27638 13.7595 1.90709 12.6173C1.84478 12.4247 1.90486 12.2134 2.05923 12.0824L3.61407 10.7623C4.03506 10.4048 4.08655 9.77373 3.72908 9.35274C3.69393 9.31135 3.65547 9.27288 3.61409 9.23775L2.05923 7.91764C1.90486 7.78658 1.84478 7.57534 1.90709 7.38266ZM2.96763 7.37709L4.26133 8.47546C4.34412 8.54576 4.42105 8.62269 4.49135 8.70548C5.20629 9.54746 5.10331 10.8096 4.26131 11.5246L2.96763 12.6229C3.25969 13.4051 3.68113 14.1322 4.21257 14.7751L5.80855 14.2044C5.91083 14.1679 6.01591 14.1397 6.12276 14.1202C7.20941 13.922 8.25096 14.6423 8.44915 15.729L8.75311 17.3975C9.16099 17.4655 9.57634 17.5 9.99635 17.5C10.4161 17.5 10.8312 17.4656 11.2388 17.3976L11.5436 15.7289C11.5631 15.6221 11.5912 15.517 11.6278 15.4147C11.9995 14.3746 13.144 13.8327 14.1842 14.2044L15.7801 14.7751C16.3116 14.1322 16.733 13.4051 17.0251 12.6229L15.7314 11.5245C15.6486 11.4542 15.5717 11.3773 15.5014 11.2945C14.7864 10.4525 14.8894 9.1904 15.7314 8.47544L17.0251 7.37709C16.733 6.59486 16.3116 5.86783 15.7801 5.22494L14.1842 5.79559C14.0819 5.83214 13.9768 5.8603 13.8699 5.87979C12.7833 6.07796 11.7417 5.3577 11.5436 4.27119L11.2388 2.60235C10.8312 2.53443 10.4161 2.5 9.99635 2.5C9.57634 2.5 9.16099 2.53448 8.75311 2.60249L8.44913 4.27105C8.42964 4.37791 8.40149 4.48299 8.36494 4.58527C7.99323 5.62542 6.8487 6.1673 5.80846 5.79556L4.21257 5.22494C3.68113 5.86783 3.25969 6.59486 2.96763 7.37709ZM7.49635 10C7.49635 8.61929 8.61564 7.5 9.99635 7.5C11.3771 7.5 12.4964 8.61929 12.4964 10C12.4964 11.3807 11.3771 12.5 9.99635 12.5C8.61564 12.5 7.49635 11.3807 7.49635 10ZM8.49635 10C8.49635 10.8284 9.16792 11.5 9.99635 11.5C10.8248 11.5 11.4964 10.8284 11.4964 10C11.4964 9.17157 10.8248 8.5 9.99635 8.5C9.16792 8.5 8.49635 9.17157 8.49635 10Z" fill="#242424"/>
</svg>
