<svg width="20" height="20" viewBox="0 0 20 20" fill="none" xmlns="http://www.w3.org/2000/svg">
<path fill-rule="evenodd" clip-rule="evenodd" d="M9.99992 0.833496C4.93742 0.833496 0.833252 4.93766 0.833252 10.0002C0.833252 15.0627 4.93742 19.1668 9.99992 19.1668C15.0624 19.1668 19.1666 15.0627 19.1666 10.0002C19.1666 4.93766 15.0624 0.833496 9.99992 0.833496ZM9.99992 17.9168C5.6345 17.9168 2.08325 14.3656 2.08325 10.0002C2.08325 5.63475 5.6345 2.0835 9.99992 2.0835C14.3653 2.0835 17.9166 5.63475 17.9166 10.0002C17.9166 14.3656 14.3653 17.9168 9.99992 17.9168Z" fill="#00B367"/>
<path fill-rule="evenodd" clip-rule="evenodd" d="M13.7245 6.8635L8.88867 11.6993L6.27533 9.086C6.03117 8.84183 5.63575 8.84183 5.39158 9.086C5.14742 9.32975 5.14742 9.726 5.39158 9.96975L8.88908 13.4672L14.6091 7.74766C14.8533 7.50391 14.8533 7.10808 14.6091 6.86391C14.3649 6.61975 13.9687 6.61933 13.7245 6.8635Z" fill="#00B367"/>
</svg>
