<svg width="20" height="20" viewBox="0 0 20 20" fill="none" >
<path d="M9.99805 2C10.2742 2 10.498 2.22386 10.498 2.5V3.5C10.498 3.77614 10.2742 4 9.99805 4C9.7219 4 9.49805 3.77614 9.49805 3.5V2.5C9.49805 2.22386 9.7219 2 9.99805 2ZM13.998 10C13.998 12.2091 12.2072 14 9.99805 14C7.78891 14 5.99805 12.2091 5.99805 10C5.99805 7.79086 7.78891 6 9.99805 6C12.2072 6 13.998 7.79086 13.998 10ZM17.498 10.5C17.7742 10.5 17.998 10.2761 17.998 10C17.998 9.72386 17.7742 9.5 17.498 9.5H16.498C16.2219 9.5 15.998 9.72386 15.998 10C15.998 10.2761 16.2219 10.5 16.498 10.5H17.498ZM9.99805 16C10.2742 16 10.498 16.2239 10.498 16.5V17.5C10.498 17.7761 10.2742 18 9.99805 18C9.7219 18 9.49805 17.7761 9.49805 17.5V16.5C9.49805 16.2239 9.7219 16 9.99805 16ZM3.49805 10.5C3.77419 10.5 3.99805 10.2761 3.99805 10C3.99805 9.72386 3.77419 9.5 3.49805 9.5H2.46094C2.1848 9.5 1.96094 9.72386 1.96094 10C1.96094 10.2761 2.1848 10.5 2.46094 10.5H3.49805ZM4.14449 4.14645C4.33976 3.95118 4.65634 3.95118 4.8516 4.14645L5.8516 5.14645C6.04686 5.34171 6.04686 5.65829 5.8516 5.85355C5.65634 6.04882 5.33976 6.04882 5.14449 5.85355L4.14449 4.85355C3.94923 4.65829 3.94923 4.34171 4.14449 4.14645ZM4.8516 15.8536C4.65634 16.0488 4.33976 16.0488 4.14449 15.8536C3.94923 15.6583 3.94923 15.3417 4.14449 15.1464L5.14449 14.1464C5.33976 13.9512 5.65634 13.9512 5.8516 14.1464C6.04686 14.3417 6.04686 14.6583 5.8516 14.8536L4.8516 15.8536ZM15.8516 4.14645C15.6563 3.95118 15.3398 3.95118 15.1445 4.14645L14.1445 5.14645C13.9492 5.34171 13.9492 5.65829 14.1445 5.85355C14.3398 6.04882 14.6563 6.04882 14.8516 5.85355L15.8516 4.85355C16.0469 4.65829 16.0469 4.34171 15.8516 4.14645ZM15.1445 15.8536C15.3398 16.0488 15.6563 16.0488 15.8516 15.8536C16.0469 15.6583 16.0469 15.3417 15.8516 15.1464L14.8516 14.1464C14.6563 13.9512 14.3398 13.9512 14.1445 14.1464C13.9492 14.3417 13.9492 14.6583 14.1445 14.8536L15.1445 15.8536Z" fill="#242424"/>
</svg>
