<svg xmlns="http://www.w3.org/2000/svg" xmlns:xlink="http://www.w3.org/1999/xlink" version="1.1" x="0px" y="0px" viewBox="0 0 256 256" enable-background="new 0 0 256 256" xml:space="preserve">
<metadata> Svg Vector Icons : http://www.onlinewebfonts.com/icon </metadata>
<g><g><g><path fill="#000000" d="M114.3,47.7c-14.2,1.4-27.8,4.9-35.3,9.2c-3.4,2-7,5.3-8.1,7.6c-1,2-1,2.2-1,63.6c0,61.4,0,61.5,1,63.6c3.4,7,16.2,12.8,35.1,15.8c5.9,0.9,8.3,1.1,21.2,1.1c15.3,0,19.4-0.4,29.7-2.6c13.8-3.1,24.1-8.6,26.7-14.4c0.9-1.9,0.9-4.4,0.9-63.6c0-60.8,0-61.6-0.9-63.4c-1.3-2.6-5.4-6.2-9.4-8.4c-7.2-3.7-20.1-7.1-32.4-8.3C137.3,47.4,118.4,47.3,114.3,47.7z M148.5,55.1c14.6,2.3,24,5.6,27.8,9.9c5.8,6.3-4.1,12.9-24.3,16.4c-11.8,2-30.4,2.5-42.7,1c-20.6-2.4-34.2-8.6-32.6-14.8c1.4-5.6,14.5-10.7,32.9-12.8C117.5,53.8,141.8,54,148.5,55.1z M84.2,82.6c24.5,10,67.3,9.4,88.6-1.2c2.5-1.2,4.6-2.3,4.9-2.4c0.2-0.1,0.3,4.4,0.3,10.1c0,11.3-0.1,12-2.9,14.1c-7.5,5.7-23,9.1-43.4,9.6c-22.9,0.6-43.8-3.2-52.1-9.6c-3-2.2-3.1-2.7-3.1-14.3V78.5l2.3,1.4C80.1,80.7,82.5,81.9,84.2,82.6z M81.7,111.2c11.6,5.8,30.3,8.8,50,8.3c17.5-0.5,32.2-3.6,42.2-8.8c1.8-0.9,3.4-1.7,3.7-1.8c0.2-0.1,0.3,4.5,0.3,10.3c0,10.4,0,10.5-1.1,12c-3.4,4.4-13.1,7.9-27.8,10.2c-8,1.2-25.8,1.7-34.9,0.9c-15.9-1.3-28.7-4.8-34.6-9.3c-2.8-2.2-3-2.8-3-14.1c0-5.6,0.1-10.1,0.4-10.1C77.1,108.9,79.3,110,81.7,111.2z M80.7,140.5c6.6,3.4,15.9,6,27.2,7.7c8.1,1.2,30.6,1.2,38.7,0c11.6-1.7,20.2-4.2,26.9-7.6c2.1-1,3.9-2,4.2-2.1c0.2-0.1,0.3,4.6,0.3,10.5v10.6l-1.4,1.7c-3.8,4.3-14,7.9-28.6,10.1c-8.1,1.2-33.4,1.2-41.5,0c-15.1-2.2-26.3-6.4-29-10.9c-0.8-1.4-0.9-2.4-0.9-11.8c0-5.7,0.1-10.2,0.4-10.1C77.1,138.7,78.8,139.5,80.7,140.5z M82.2,170.9c11.9,5.9,28.2,8.5,49,8c18.3-0.4,32.3-3.3,42.9-8.6l4-2v10.6v10.6l-1.7,1.8c-3.8,4.2-13.4,7.6-27.8,9.8c-6.3,1-27.9,1.4-35.6,0.7c-18.1-1.7-31.7-6-35.3-11.3c-1-1.6-1.1-2-1.1-11.9c0-5.7,0.1-10.3,0.4-10.2C77.1,168.4,79.5,169.6,82.2,170.9z"/><path fill="#000000" d="M188.9,66.2v3.2l1.5,0.3c0.8,0.1,3.3,0.3,5.4,0.3c8,0,20.4,1.7,28.3,4c9,2.5,15.3,6.8,15.3,10.3c0,6.8-15.7,12.7-38.9,14.5c-3.4,0.2-7.3,0.5-8.8,0.5h-2.8v3.3v3.3h2.5c3.9,0,14.2-0.9,19.2-1.7c10.2-1.6,21.2-5,26.4-8.2l2.4-1.5V105c0,8.1-0.1,10.7-0.7,11.7c-2.1,4.1-12,8.1-25.3,10.4c-5.9,1-16.2,1.9-21.3,1.9h-3.2v3.4v3.3l6.7-0.3c16.1-0.8,29.4-3.6,39.1-8.4c2.2-1.1,4.2-2,4.4-2.1c0.2-0.1,0.3,4.5,0.3,10.1c0,9.4-0.1,10.4-0.9,11.8c-3.8,6.1-25.7,11.8-45.6,11.9h-3.9v3.4v3.4l6.8-0.3c15.7-0.7,30.4-3.9,39.6-8.7c1.9-1,3.6-1.8,3.8-1.9c0.2-0.1,0.3,4.5,0.3,10.3c0,10.4,0,10.5-1.1,12c-4.5,5.9-21.8,10.6-41.7,11.4l-7.7,0.3v3.3v3.3l7.2-0.3c24.1-1.1,44.7-8.2,48.9-17c1-2,1-2.4,1-48.8c0-53.2,0.4-48.5-4.3-52.9c-1.5-1.3-4.1-3.1-5.9-4.1c-8.4-4.4-22.9-7.9-35.8-8.6c-2.6-0.1-6.1-0.4-7.9-0.5l-3.2-0.2L188.9,66.2L188.9,66.2z"/><path fill="#000000" d="M56,91.8c-21.7,1.6-40,8.2-44.6,16.1l-1.4,2.5v32.1v32.1l1.4,2.5c2.5,4.2,8.3,8,17.2,11c9.4,3.2,19.2,4.8,32.5,5.5l6,0.3v-3.3v-3.3l-9.1-0.6c-17.1-1-30.1-4.1-37.2-8.6c-4.2-2.6-4.2-3-4.2-15.1v-10.4l2.2,1.4c5.4,3.3,15.5,6.4,25.9,8.1c5.3,0.9,16.6,1.9,20.7,1.9h1.7v-3.2v-3.3l-8.8-0.5c-17.9-1.1-30.9-4.2-37.7-8.8c-4-2.7-4-2.9-4-14.8v-10.4l3.4,1.8c9,4.9,21.9,7.9,38.1,9c3.8,0.2,7.3,0.5,7.9,0.5c1,0,1-0.2,1-3.3v-3.3l-5.5-0.3c-22.4-1.2-37.9-5.2-43.2-11.1c-2.1-2.3-2.3-4.2-0.7-6.5c4.1-5.9,19.2-10.2,40.6-11.6l8.8-0.5v-3.3v-3.2l-2.9,0C62.5,91.4,58.9,91.5,56,91.8z"/></g></g></g>
<script xmlns=""/></svg>