<svg width="20" height="20" viewBox="0 0 20 20" fill="none" xmlns="http://www.w3.org/2000/svg">
<path d="M15 3C15.2761 3 15.5 2.77614 15.5 2.5C15.5 2.25454 15.3231 2.05039 15.0899 2.00806L15 2H4C3.72386 2 3.5 2.22386 3.5 2.5C3.5 2.74546 3.67688 2.94961 3.91012 2.99195L4 3H15ZM9.50014 17.9978C9.7456 17.9978 9.9497 17.8208 9.99197 17.5875L10 17.4976L9.996 5.70379L13.6414 9.35212C13.8148 9.52585 14.0842 9.54538 14.2792 9.41057L14.3485 9.35277C14.5222 9.17937 14.5418 8.90996 14.407 8.71497L14.3492 8.64567L9.85745 4.14567C9.78495 4.07304 9.69568 4.02736 9.60207 4.00864L9.49608 3.9989C9.33511 3.9989 9.19192 4.07502 9.10051 4.19321L4.64386 8.64509C4.44846 8.84021 4.44823 9.1568 4.64336 9.3522C4.8168 9.52589 5.08621 9.54536 5.28117 9.41051L5.35046 9.3527L8.996 5.71179L9 17.4979C9.00008 17.7741 9.224 17.9978 9.50014 17.9978Z" fill="#242424"/>
</svg>
