<svg width="16px" height="16px" viewBox="0 0 16 16">
  <path d="M4.35088 4L6.34752 4C6.53568 4 6.68832 4.15216 6.68832 4.33984C6.67712 4.79312 6.75344 5.24416 6.91312 5.66864C7.05536 5.9624 6.95952 6.31568 6.68832 6.49792L5.98976 7.1776C6.29952 7.7808 6.70448 8.3304 7.18912 8.80544C7.66144 9.2968 8.21024 9.7088 8.81424 10.0254L9.49568 9.3288C9.83648 8.98896 9.99312 8.98896 10.327 9.10448C10.7526 9.26384 11.205 9.34 11.6594 9.3288C11.8438 9.33744 11.9914 9.48464 12 9.66864L12 11.6602C11.9914 11.8442 11.8438 11.9914 11.6594 12C9.65504 11.913 7.7552 11.0842 6.33056 9.67552C4.916 8.25584 4.08464 6.36 4 4.36016C4.00176 4.16592 4.15632 4.0072 4.35088 4L4.35088 4L4.35088 4L4.35088 4L4.35088 4ZM8.02348 0C3.61818 0 0.0469731 3.55097 0.0469731 7.9313C0.0469731 9.33575 0.414616 10.6565 1.05968 11.8017L0.0831864 14.3425C-0.276726 15.2789 0.58962 16.2234 1.56045 15.953L4.61285 15.1029C5.6476 15.5903 6.80432 15.8626 8.02348 15.8626C12.4287 15.8626 16 12.3117 16 7.9313C16 3.55097 12.4287 0 8.02348 0L8.02348 0L8.02348 0ZM1.04615 7.93001C1.04615 4.10266 4.16981 1 8.02306 1C11.8762 1 15 4.10266 15 7.93001C15 11.7574 11.8762 14.86 8.02306 14.86C6.87868 14.86 5.8004 14.5868 4.84892 14.1031L4.62793 13.9907L1 15L2.22935 11.8049L2.06661 11.5405C1.41934 10.4894 1.04615 9.254 1.04615 7.93001L1.04615 7.93001L1.04615 7.93001Z" id="Shape" fill="#242424" fill-rule="evenodd" stroke="none" />
</svg>