<svg width="13.640608px" height="13.601913px" viewBox="0 0 13.640608 13.601913">
  <path d="M3.33238 3L5.22372 3C5.40196 3 5.54655 3.14373 5.54655 3.32101C5.53594 3.74916 5.60824 4.17521 5.75949 4.57616C5.89423 4.85364 5.80345 5.18734 5.54655 5.35948L4.88483 6.00149C5.17825 6.57126 5.56186 7.0904 6.02094 7.53911C6.46835 8.00324 6.98821 8.3924 7.56036 8.69149L8.20586 8.03346C8.52869 7.71246 8.67707 7.71246 8.99338 7.82158C9.39654 7.9721 9.825 8.04404 10.2554 8.03346C10.4302 8.04163 10.5699 8.18067 10.5781 8.35447L10.5781 10.2356C10.5699 10.4094 10.4302 10.5485 10.2554 10.5566C8.35682 10.4744 6.55717 9.69154 5.20766 8.36097C3.86769 7.01997 3.08018 5.2292 3 3.3402C3.00167 3.15672 3.14808 3.0068 3.33238 3L3.33238 3L3.33238 3L3.33238 3L3.33238 3ZM6.8203 13.6019C10.5871 13.6019 13.6406 10.5571 13.6406 6.80096C13.6406 3.04486 10.5871 0 6.8203 0C3.05353 0 -2.38419e-07 3.04486 -2.38419e-07 6.80096C-2.38419e-07 7.99762 0.309945 9.12205 0.854054 10.0988L0.0286449 12.802C-0.115824 13.2752 0.327677 13.7175 0.802371 13.5735L3.51397 12.7507C4.49337 13.293 5.62069 13.6019 6.8203 13.6019L6.8203 13.6019L6.8203 13.6019Z" id="Shape" fill="#242424" fill-rule="evenodd" stroke="none" />
</svg>